<svg width="49" height="48" viewBox="0 0 49 48" fill="none" xmlns="http://www.w3.org/2000/svg">
<g clip-path="url(#clip0_1_149)">
<path d="M40.239 26.6188L33.0719 15.3835C34.0874 14.8499 34.782 13.785 34.782 12.5603C34.782 11.2199 33.95 10.0708 32.7755 9.60046L34.9466 2.00964C35.0403 1.68215 34.9489 1.32973 34.7082 1.08887C33.2639 -0.355341 30.914 -0.355341 29.4697 1.08887C29.1243 1.43436 28.6649 1.62459 28.1764 1.62459C27.6878 1.62459 27.2285 1.43436 26.8808 1.08662L26.8762 1.08202C25.4371 -0.357311 23.0913 -0.361342 21.6463 1.07349L21.6194 1.10031C20.9061 1.80844 19.7479 1.80638 19.0372 1.09572L19.0304 1.08887C17.5861 -0.355341 15.2362 -0.355341 13.7919 1.08887C13.551 1.32992 13.4598 1.68262 13.5536 2.0103L15.7295 9.59868C14.5524 10.0678 13.7181 11.2181 13.7181 12.5604C13.7181 13.7851 14.4126 14.85 15.4282 15.3836L8.26107 26.6188C5.48834 30.9653 5.31263 36.2593 7.79106 40.7801C10.2695 45.3009 14.8271 48 19.9829 48H28.517C33.6727 48 38.2304 45.3009 40.7089 40.7801C43.1873 36.2593 43.0117 30.9653 40.239 26.6188ZM17.7044 2.41476L17.7112 2.42161C19.1506 3.86085 21.4964 3.86478 22.9413 2.43014L22.9682 2.40332C23.6812 1.69518 24.8396 1.69725 25.5524 2.41007L25.557 2.41467C27.0013 3.85888 29.3512 3.85888 30.7955 2.41467C31.3832 1.82701 32.2745 1.7236 32.969 2.10443L30.8903 9.37265H17.6154L15.5313 2.10434C16.2258 1.7236 17.1169 1.82719 17.7044 2.41476ZM39.0647 39.8788C36.9205 43.7899 32.9775 46.125 28.5171 46.125H19.983C15.5226 46.125 11.5796 43.79 9.43545 39.8788C7.29125 35.9676 7.44323 31.3877 9.84196 27.6273L17.4198 15.748H20.0311C20.5489 15.748 20.9686 15.3283 20.9686 14.8104C20.9686 14.2927 20.5489 13.8729 20.0311 13.8729H16.9058C16.182 13.8729 15.5932 13.2842 15.5932 12.5603C15.5932 11.8366 16.182 11.2477 16.9058 11.2477H16.9089H31.5942C32.318 11.2477 32.9068 11.8366 32.9068 12.5603C32.9068 13.2842 32.318 13.8729 31.5942 13.8729H28.469C27.9513 13.8729 27.5315 14.2927 27.5315 14.8104C27.5315 15.3283 27.9513 15.748 28.469 15.748H31.0803L38.6582 27.6273C41.0569 31.3876 41.2088 35.9675 39.0647 39.8788Z" fill="#2044A8"/>
<path d="M25.903 30.6187C25.6677 30.5355 25.4276 30.449 25.1876 30.3591V26.1098C25.8232 26.2969 26.2478 26.6002 26.2658 26.6133C26.6782 26.9222 27.2633 26.8403 27.575 26.429C27.8877 26.0163 27.8066 25.4282 27.3938 25.1154C27.3388 25.0737 26.4671 24.4267 25.1876 24.1817V23.2486C25.1876 22.7308 24.7679 22.311 24.25 22.311C23.7322 22.311 23.3125 22.7308 23.3125 23.2486V24.1749C23.1537 24.2054 22.9927 24.2439 22.8296 24.293C21.51 24.6894 20.5237 25.8179 20.2555 27.2379C20.0107 28.5345 20.4261 29.7851 21.3397 30.5017C21.8355 30.8904 22.4549 31.2455 23.3125 31.6225V37.06C22.5741 37.0134 22.0802 36.8453 21.2569 36.3067C20.8236 36.0231 20.2425 36.1447 19.959 36.5781C19.6755 37.0114 19.797 37.5924 20.2304 37.8759C21.431 38.6613 22.2439 38.8838 23.3125 38.9364V39.9059C23.3125 40.4237 23.7322 40.8434 24.25 40.8434C24.7679 40.8434 25.1876 40.4237 25.1876 39.9059V38.8389C27.1952 38.3993 28.3695 36.7239 28.6329 35.1567C28.9773 33.1077 27.9058 31.3265 25.903 30.6187ZM22.4969 29.0261C22.1365 28.7435 21.9837 28.1915 22.098 27.5858C22.2032 27.0286 22.578 26.3569 23.3125 26.1084V29.5419C23.0042 29.3776 22.726 29.2058 22.4969 29.0261ZM26.7837 34.8457C26.6487 35.6487 26.1067 36.5004 25.1875 36.8768V32.3541C25.218 32.3649 25.247 32.3755 25.278 32.3865C26.9589 32.9806 26.8555 34.419 26.7837 34.8457Z" fill="#2044A8"/>
<path d="M24.25 15.748C24.4967 15.748 24.7385 15.6477 24.9129 15.4733C25.0873 15.299 25.1876 15.0571 25.1876 14.8105C25.1876 14.5639 25.0873 14.322 24.9129 14.1476C24.7385 13.9732 24.4967 13.8729 24.25 13.8729C24.0034 13.8729 23.7616 13.9732 23.5872 14.1476C23.4128 14.322 23.3125 14.5639 23.3125 14.8105C23.3125 15.0571 23.4128 15.299 23.5872 15.4733C23.7616 15.6477 24.0033 15.748 24.25 15.748Z" fill="#2044A8"/>
</g>
<defs>
<clipPath id="clip0_1_149">
<rect width="48" height="48" fill="white" transform="translate(0.25)"/>
</clipPath>
</defs>
</svg>
