<svg width="512" height="512" viewBox="0 0 512 512" fill="none" xmlns="http://www.w3.org/2000/svg">
<path d="M285.613 498.162H226.387C223.218 498.139 220.152 497.039 217.691 495.042C215.23 493.045 213.522 490.271 212.847 487.175L206.433 455.161C186.649 450.235 167.716 442.371 150.265 431.83L123.115 449.882C120.474 451.646 117.307 452.448 114.145 452.153C110.983 451.858 108.018 450.485 105.749 448.263L63.8755 406.327C61.6177 404.039 60.2235 401.039 59.9308 397.838C59.6381 394.637 60.4649 391.434 62.2703 388.774L80.2595 361.79C69.6969 344.338 61.8378 325.387 56.9497 305.581L24.9082 299.174C21.7956 298.51 19.0025 296.804 16.9899 294.339C14.9773 291.873 13.8654 288.795 13.8379 285.613V226.387C13.8609 223.218 14.9612 220.151 16.9579 217.691C18.9546 215.23 21.729 213.522 24.8251 212.847L56.9012 206.412C61.7904 186.61 69.647 167.662 80.2042 150.21L62.1181 123.157C60.3506 120.515 59.5466 117.344 59.8415 114.179C60.1363 111.014 61.512 108.047 63.7371 105.776L105.673 63.8478C107.956 61.5862 110.954 60.1872 114.154 59.8894C117.353 59.5916 120.558 60.4135 123.219 62.2149L150.203 80.2387C167.666 69.6801 186.616 61.8039 206.419 56.8735L212.826 24.9081C213.49 21.7955 215.196 19.0024 217.661 16.9898C220.127 14.9772 223.205 13.8654 226.387 13.8378H285.613C288.782 13.8609 291.849 14.9611 294.309 16.9579C296.77 18.9546 298.478 21.7289 299.153 24.8251L305.567 56.8389C325.403 61.7485 344.382 69.6307 361.86 80.2179L388.843 62.125C391.486 60.3574 394.656 59.5535 397.821 59.8483C400.986 60.1432 403.953 61.5188 406.224 63.744L448.159 105.673C450.428 107.952 451.832 110.95 452.13 114.152C452.428 117.354 451.601 120.56 449.792 123.219L431.803 150.265C442.347 167.712 450.212 186.643 455.133 206.426L487.037 212.826C490.159 213.479 492.965 215.18 494.989 217.646C497.012 220.113 498.132 223.197 498.162 226.387V285.613C498.139 288.782 497.039 291.848 495.042 294.309C493.045 296.77 490.271 298.478 487.175 299.153L455.161 305.574C450.24 325.357 442.375 344.288 431.831 361.735L449.889 388.885C451.652 391.526 452.453 394.694 452.157 397.856C451.861 401.019 450.486 403.983 448.263 406.251L406.327 448.187C404.043 450.447 401.046 451.845 397.846 452.143C394.647 452.441 391.443 451.62 388.781 449.82L361.797 431.782C344.33 442.366 325.363 450.248 305.54 455.161L299.174 487.092C298.51 490.204 296.804 492.998 294.339 495.01C291.874 497.023 288.796 498.135 285.613 498.162ZM150.141 416.678C151.436 416.674 152.705 417.039 153.801 417.73C172.246 429.446 192.575 437.893 213.892 442.7C215.196 442.995 216.387 443.662 217.32 444.62C218.253 445.578 218.889 446.785 219.15 448.097L226.394 484.324H285.551L292.871 448.097C293.133 446.784 293.769 445.576 294.704 444.618C295.638 443.66 296.831 442.994 298.136 442.7C319.453 437.918 339.779 429.472 358.206 417.737C359.355 417.036 360.679 416.672 362.025 416.688C363.371 416.704 364.685 417.098 365.817 417.827L396.53 438.376L438.376 396.544L418.2 366.274C417.94 365.959 417.708 365.62 417.508 365.264C416.906 364.182 416.605 362.958 416.637 361.721C416.668 360.483 417.031 359.277 417.688 358.227C429.408 339.783 437.856 319.454 442.659 298.136C442.954 296.832 443.621 295.641 444.578 294.708C445.536 293.775 446.744 293.139 448.055 292.878L484.324 285.606V226.387L448.097 219.122C446.785 218.861 445.578 218.225 444.62 217.292C443.662 216.359 442.995 215.168 442.7 213.864C437.897 192.546 429.45 172.217 417.73 153.773C417.068 152.727 416.698 151.522 416.661 150.284C416.623 149.046 416.918 147.821 417.515 146.736C417.756 146.295 418.046 145.881 418.38 145.505L438.362 115.456L396.537 73.5965L365.845 94.1734C364.713 94.9031 363.399 95.2986 362.052 95.3145C360.706 95.3304 359.383 94.9661 358.234 94.2633C339.806 82.5284 319.481 74.0819 298.164 69.2999C296.858 69.0059 295.666 68.3396 294.732 67.3817C293.797 66.4239 293.16 65.2155 292.899 63.9031L285.606 27.6757H226.387L219.129 63.9031C218.868 65.2146 218.232 66.4223 217.299 67.3801C216.366 68.3379 215.175 69.0047 213.871 69.2999C192.554 74.1065 172.226 82.5538 153.78 94.2703C152.649 94.9865 151.334 95.3592 149.996 95.3432C148.657 95.3273 147.352 94.9233 146.238 94.1803L115.449 73.6311L73.5966 115.456L94.1804 146.231C94.9234 147.345 95.3273 148.65 95.3433 149.989C95.3593 151.327 94.9865 152.642 94.2703 153.773C82.5543 172.204 74.1266 192.529 69.3622 213.843C69.0561 215.222 68.3351 216.475 67.2961 217.432C66.2571 218.389 64.95 219.006 63.5503 219.198L27.6757 226.394V285.613L63.7856 292.85C65.1346 293.089 66.3835 293.719 67.3765 294.663C68.3695 295.606 69.0625 296.822 69.3691 298.157C74.1337 319.471 82.5615 339.796 94.2772 358.227C94.993 359.357 95.3661 360.669 95.3514 362.007C95.3367 363.344 94.9347 364.648 94.1942 365.762L73.7142 396.544L115.47 438.41L145.74 418.221C146.985 417.223 148.532 416.679 150.127 416.678H150.141Z" fill="white"/>
<path d="M317.101 387.044C315.535 387.044 314.015 386.513 312.79 385.538C311.565 384.562 310.707 383.199 310.357 381.673C310.006 380.146 310.184 378.546 310.861 377.134C311.539 375.722 312.675 374.581 314.084 373.898C320.043 371.026 325.74 367.642 331.112 363.783C332.603 362.787 334.422 362.408 336.187 362.727C337.951 363.046 339.523 364.037 340.571 365.492C341.619 366.948 342.061 368.753 341.804 370.527C341.547 372.302 340.611 373.907 339.193 375.005C333.17 379.325 326.786 383.117 320.111 386.339C319.174 386.798 318.145 387.039 317.101 387.044V387.044Z" fill="white"/>
<path d="M256 401.297C227.263 401.297 199.171 392.776 175.277 376.81C151.383 360.845 132.76 338.152 121.763 311.603C110.766 285.053 107.888 255.839 113.495 227.654C119.101 199.469 132.939 173.579 153.259 153.259C173.579 132.939 199.469 119.101 227.654 113.495C255.839 107.888 285.053 110.766 311.603 121.763C338.152 132.76 360.845 151.383 376.81 175.277C392.776 199.171 401.297 227.263 401.297 256C401.297 258.429 401.221 260.781 401.076 263.21C400.934 265.03 400.089 266.724 398.72 267.933C397.352 269.142 395.566 269.77 393.742 269.686C391.911 269.572 390.199 268.735 388.985 267.36C387.771 265.984 387.152 264.183 387.266 262.352C387.397 260.214 387.459 258.138 387.459 256C387.459 230 379.75 204.583 365.305 182.965C350.86 161.347 330.328 144.497 306.307 134.547C282.286 124.597 255.854 121.994 230.354 127.067C204.853 132.139 181.429 144.659 163.044 163.044C144.659 181.429 132.139 204.853 127.067 230.354C121.994 255.854 124.597 282.286 134.547 306.307C144.497 330.328 161.347 350.86 182.965 365.305C204.583 379.75 230 387.459 256 387.459C258.076 387.459 260.151 387.397 262.227 387.266C263.136 387.209 264.047 387.332 264.908 387.627C265.769 387.922 266.563 388.384 267.246 388.986C267.929 389.589 268.486 390.32 268.886 391.137C269.286 391.955 269.522 392.844 269.578 393.752C269.635 394.661 269.512 395.572 269.217 396.433C268.922 397.294 268.46 398.089 267.858 398.771C267.255 399.454 266.524 400.011 265.707 400.411C264.889 400.812 264.001 401.047 263.092 401.104C260.719 401.228 258.359 401.297 256 401.297Z" fill="white"/>
<path d="M369.394 342.071C368.12 342.071 366.871 341.72 365.784 341.055C364.697 340.39 363.815 339.438 363.235 338.304C362.655 337.17 362.399 335.898 362.495 334.627C362.592 333.357 363.038 332.138 363.783 331.105C367.632 325.753 371.025 320.087 373.926 314.167C374.746 312.534 376.179 311.291 377.911 310.711C379.644 310.13 381.536 310.258 383.175 311.068C384.813 311.878 386.065 313.303 386.656 315.032C387.248 316.761 387.131 318.654 386.332 320.298C383.092 326.902 379.304 333.223 375.005 339.193C374.365 340.083 373.522 340.808 372.547 341.309C371.571 341.809 370.491 342.071 369.394 342.071Z" fill="white"/>
<path d="M295.936 291.487C294.521 291.486 293.141 291.051 291.98 290.241C290.82 289.431 289.936 288.285 289.448 286.958C288.959 285.63 288.889 284.184 289.248 282.815C289.606 281.447 290.376 280.221 291.452 279.303L318.838 256L291.452 232.697C290.761 232.106 290.192 231.385 289.779 230.575C289.365 229.765 289.116 228.881 289.044 227.974C288.972 227.067 289.08 226.155 289.361 225.29C289.642 224.424 290.09 223.623 290.681 222.931C291.272 222.239 291.993 221.67 292.803 221.257C293.614 220.844 294.497 220.594 295.404 220.523C296.311 220.451 297.223 220.559 298.088 220.84C298.954 221.12 299.755 221.569 300.447 222.16L334.018 250.728C334.782 251.377 335.396 252.185 335.817 253.096C336.238 254.006 336.456 254.997 336.456 256C336.456 257.003 336.238 257.994 335.817 258.904C335.396 259.815 334.782 260.623 334.018 261.272L300.447 289.84C299.188 290.91 297.588 291.494 295.936 291.487V291.487Z" fill="white"/>
<path d="M216.064 291.487C214.419 291.489 212.827 290.906 211.574 289.84L178.003 261.272C177.239 260.623 176.625 259.815 176.204 258.904C175.783 257.994 175.565 257.003 175.565 256C175.565 254.997 175.783 254.006 176.204 253.096C176.625 252.185 177.239 251.377 178.003 250.728L211.574 222.16C212.971 220.967 214.785 220.378 216.616 220.523C218.448 220.667 220.147 221.534 221.34 222.931C222.532 224.328 223.121 226.142 222.977 227.974C222.832 229.805 221.966 231.504 220.568 232.697L193.162 256L220.548 279.303C221.624 280.221 222.394 281.447 222.752 282.815C223.11 284.184 223.041 285.63 222.552 286.958C222.064 288.285 221.18 289.431 220.02 290.241C218.859 291.051 217.479 291.486 216.064 291.487V291.487Z" fill="white"/>
<path d="M232.683 325.777C231.861 325.774 231.046 325.627 230.275 325.341C228.555 324.703 227.159 323.409 226.393 321.741C225.628 320.074 225.556 318.171 226.193 316.451L272.834 190.741C273.152 189.889 273.634 189.108 274.254 188.443C274.874 187.778 275.619 187.241 276.446 186.863C277.273 186.486 278.167 186.275 279.075 186.243C279.984 186.211 280.89 186.358 281.742 186.676C282.594 186.994 283.374 187.477 284.04 188.096C284.705 188.716 285.242 189.461 285.619 190.288C285.997 191.115 286.207 192.009 286.24 192.917C286.272 193.826 286.125 194.732 285.807 195.584L239.166 321.259C238.676 322.584 237.792 323.727 236.633 324.535C235.474 325.342 234.096 325.776 232.683 325.777Z" fill="white"/>
</svg>
