<svg width="49" height="48" viewBox="0 0 49 48" fill="none" xmlns="http://www.w3.org/2000/svg">
<path d="M27.5742 11.2852C33.0215 11.2852 37.4531 6.8535 37.4531 1.40625C37.4531 0.629625 36.8235 0 36.0469 0H33.2227C29.6297 0 26.479 1.92834 24.75 4.80412C23.021 1.92834 19.8703 0 16.2773 0H13.4531C12.6765 0 12.0469 0.629625 12.0469 1.40625C12.0469 6.8535 16.4785 11.2852 21.9258 11.2852H23.3438V15.9961H17.2148C16.7275 15.9961 16.2749 16.2485 16.0186 16.663C15.7624 17.0776 15.7391 17.5953 15.9571 18.0312L17.6953 21.5077V40.9453C17.6953 44.8353 20.86 48 24.75 48C28.64 48 31.8047 44.8353 31.8047 40.9453V21.5077L33.5429 18.0312C33.7609 17.5953 33.7376 17.0776 33.4814 16.663C33.2252 16.2485 32.7725 15.9961 32.2852 15.9961H26.1562V11.2852H27.5742ZM33.2227 2.8125H34.5001C33.8463 6.03759 30.9893 8.47266 27.5742 8.47266H26.2968C26.9506 5.24756 29.8075 2.8125 33.2227 2.8125ZM21.9258 8.47266C18.5107 8.47266 15.6537 6.03759 14.9999 2.8125H16.2773C19.6925 2.8125 22.5494 5.24756 23.2032 8.47266H21.9258ZM23.3438 18.8086V21.6445H20.5078V21.1758C20.5078 20.9574 20.457 20.7422 20.3593 20.5469L19.4902 18.8086H23.3438ZM24.75 45.1875C22.4108 45.1875 20.5078 43.2845 20.5078 40.9453V24.457H23.3438V41.8828C23.3438 42.6594 23.9734 43.2891 24.75 43.2891C25.5266 43.2891 26.1562 42.6594 26.1562 41.8828V24.457H28.9922V40.9453C28.9922 43.2845 27.0892 45.1875 24.75 45.1875ZM30.0098 18.8086L29.1406 20.5469C29.0429 20.7422 28.9921 20.9574 28.9921 21.1758V21.6445H26.1562V18.8086H30.0098Z" fill="#2044A8"/>
</svg>
