<svg width="433" height="433" viewBox="0 0 433 433" fill="none" xmlns="http://www.w3.org/2000/svg">
<g clip-path="url(#clip0)">
<path d="M216.529 93.2C155.329 93.2 105.329 143.2 105.329 204.4C105.329 236.4 119.329 267.2 142.929 288C160.529 305.6 158.929 343.2 158.529 343.6C158.529 345.6 158.929 347.2 160.529 348.8C161.729 350 163.729 350.8 165.329 350.8H267.329C269.329 350.8 270.929 350 272.129 348.8C273.329 347.6 274.129 345.6 274.129 343.6C274.129 343.2 272.129 305.6 289.729 288C290.129 287.6 290.529 287.2 290.929 286.8C314.129 265.6 327.729 235.6 327.729 204.4C327.729 143.2 277.729 93.2 216.529 93.2ZM280.529 277.6C280.129 278 279.329 278.8 279.329 279.2C263.729 296 260.929 323.6 260.529 336.8H172.129C171.729 323.6 168.929 294.8 152.129 277.6C130.929 259.2 118.529 232.4 118.529 204C118.529 150 162.129 106.4 216.129 106.4C270.129 106.4 313.729 150 313.729 204C313.729 232.4 301.729 259.2 280.529 277.6Z" fill="white"/>
<path d="M216.129 121.6C212.529 121.6 209.329 124.8 209.329 128.4C209.329 132 212.529 135.2 216.129 135.2C256.529 135.2 288.929 168 288.929 208C288.929 211.6 292.129 214.8 295.729 214.8C299.329 214.8 302.529 211.6 302.529 208C302.929 160.4 264.129 121.6 216.129 121.6Z" fill="white"/>
<path d="M260.529 358.4H171.729C162.529 358.4 154.929 366 154.929 375.2C154.929 384.4 162.529 392 171.729 392H260.129C269.729 391.6 277.329 384.4 277.329 375.2C277.329 366 269.729 358.4 260.529 358.4ZM260.529 378H171.729C170.129 378 168.529 376.8 168.529 374.8C168.529 372.8 169.729 371.6 171.729 371.6H260.129C261.729 371.6 263.329 372.8 263.329 374.8C263.329 376.8 262.129 378 260.529 378Z" fill="white"/>
<path d="M247.329 398.8H184.929C175.729 398.8 168.129 406.4 168.129 415.6C168.129 424.8 175.729 432.4 184.929 432.4H247.329C256.529 432.4 264.129 424.8 264.129 415.6C264.129 406 256.529 398.8 247.329 398.8ZM247.329 418.4H184.929C183.329 418.4 181.729 417.2 181.729 415.2C181.729 413.2 182.929 412 184.929 412H247.329C248.929 412 250.529 413.2 250.529 415.2C250.529 417.2 248.929 418.4 247.329 418.4Z" fill="white"/>
<path d="M216.129 60C220.129 60 222.929 56.8 222.929 53.2V6.8C222.929 3.2 219.729 0 216.129 0C212.529 0 209.329 3.2 209.329 6.8V53.2C209.329 56.8 212.529 60 216.129 60Z" fill="white"/>
<path d="M329.329 34.4C326.129 32 322.129 33.2 320.129 36L294.529 74.4C292.129 77.6 292.929 82 296.129 84C297.329 84.8 298.529 85.2 299.729 85.2C302.129 85.2 304.129 84 305.329 82L330.929 43.6C333.329 40.8 332.529 36.4 329.329 34.4Z" fill="white"/>
<path d="M134.929 83.6001C136.129 83.6001 137.329 83.2001 138.529 82.4001C141.729 80.4001 142.529 76.0001 140.529 72.8001L115.729 34.0001C113.729 30.8001 109.329 30.0001 106.129 32.0001C102.929 34.0001 102.129 38.4001 104.129 41.6001L128.929 80.4001C130.529 82.8001 132.529 83.6001 134.929 83.6001Z" fill="white"/>
<path d="M86.529 126L46.129 104C42.929 102.4 38.529 103.6 36.929 106.8C34.929 110 36.129 114.4 39.729 116L80.129 138C81.329 138.4 82.129 138.8 83.329 138.8C85.729 138.8 88.129 137.6 89.329 135.2C90.929 132 89.729 127.6 86.529 126Z" fill="white"/>
<path d="M395.729 106.8C394.129 103.6 389.729 102.4 386.529 104L345.729 126C342.529 127.6 341.329 132 342.929 135.2C344.129 137.6 346.529 138.8 348.929 138.8C350.129 138.8 351.329 138.4 352.129 138L392.929 116C396.129 114.4 397.329 110 395.729 106.8Z" fill="white"/>
</g>
<defs>
<clipPath id="clip0">
<rect width="432.4" height="432.4" fill="white"/>
</clipPath>
</defs>
</svg>
