<svg width="49" height="48" viewBox="0 0 49 48" fill="none" xmlns="http://www.w3.org/2000/svg">
<path d="M42.7557 21.985C42.9524 20.8714 42.778 19.7292 42.2767 18.7324C42.778 17.7355 42.952 16.5934 42.7557 15.4793C42.5594 14.3657 42.0053 13.3521 41.1931 12.5867C41.3235 11.4785 41.0964 10.3458 40.5306 9.3662C39.9652 8.38658 39.0977 7.62339 38.073 7.18211C37.8163 6.0963 37.2157 5.10973 36.3492 4.38244C35.4824 3.65551 34.4065 3.2351 33.2925 3.17102C32.6798 2.23828 31.7778 1.51647 30.7147 1.12976C29.652 0.743041 28.497 0.715941 27.4283 1.03674C26.5337 0.369872 25.4391 0 24.3078 0C23.177 0 22.0824 0.369872 21.1878 1.03674C20.1192 0.715941 18.9641 0.743041 17.901 1.12976C16.8383 1.51685 15.9363 2.23865 15.3236 3.17102C14.2097 3.23547 13.1333 3.65551 12.2669 4.38244C11.4004 5.10973 10.7999 6.0963 10.5431 7.18248C9.5181 7.62377 8.65092 8.38658 8.08513 9.3662C7.51969 10.3458 7.29265 11.4785 7.42302 12.5867C6.61076 13.3521 6.05669 14.3657 5.86039 15.4793C5.66374 16.5934 5.83806 17.7355 6.3394 18.7324C5.83806 19.7292 5.66374 20.8714 5.86039 21.985C6.05669 23.0991 6.61076 24.1128 7.42302 24.8782C7.29265 25.9863 7.51969 27.119 8.08513 28.0986C8.65092 29.0782 9.51847 29.841 10.5431 30.2823C10.7175 31.0202 11.051 31.7123 11.5188 32.3081L7.39885 40.9302C7.1663 41.4165 7.23258 41.993 7.56877 42.4145C7.90531 42.8356 8.4528 43.0275 8.97868 42.9082L15.1845 41.5008L17.9882 47.2132C18.2244 47.6948 18.7143 47.9999 19.2505 47.9999H19.2578C19.7969 47.9974 20.2869 47.6864 20.5194 47.2001L24.3078 39.2717L28.0967 47.2001C28.3289 47.6864 28.8188 47.997 29.3579 47.9999H29.3656C29.9013 47.9999 30.3914 47.6948 30.6279 47.2132L33.4316 41.5008L39.6371 42.9082C40.1629 43.0275 40.7104 42.8356 41.047 42.4145C41.3835 41.993 41.4495 41.4165 41.2169 40.9302L37.097 32.3081C37.5647 31.7123 37.8983 31.0202 38.0726 30.2823C39.0977 29.841 39.9652 29.0782 40.5306 28.0986C41.096 27.119 41.3231 25.9863 41.1931 24.8782C42.0049 24.1128 42.5594 23.0991 42.7557 21.985ZM39.5118 19.5978C39.9315 20.135 40.104 20.8271 39.986 21.4969C39.8678 22.1667 39.4686 22.7578 38.8911 23.1192C38.344 23.4612 38.0997 24.1318 38.2989 24.7456C38.5095 25.3938 38.4351 26.1031 38.0949 26.6923C37.7551 27.2812 37.1776 27.7005 36.5111 27.8423C35.8801 27.9766 35.4212 28.5233 35.3986 29.1682C35.3744 29.8491 35.062 30.4903 34.5408 30.9276C34.0198 31.3648 33.3342 31.5615 32.6593 31.4666C32.0203 31.3765 31.4021 31.7339 31.1604 32.3319C30.9051 32.9637 30.3921 33.4596 29.7527 33.6921C29.1137 33.9247 28.4021 33.8748 27.8004 33.5551C27.2302 33.2523 26.5275 33.376 26.0957 33.8558C25.6398 34.3619 24.9879 34.6522 24.3078 34.6522C23.6278 34.6522 22.9759 34.3619 22.52 33.8558C22.2461 33.5514 21.8634 33.3907 21.4749 33.3907C21.2504 33.3907 21.0241 33.4442 20.8153 33.5551C20.214 33.8748 19.5021 33.9247 18.863 33.6921C18.224 33.4596 17.7109 32.9637 17.4554 32.3319C17.2136 31.7339 16.5959 31.3773 15.9564 31.4666C15.2815 31.5611 14.596 31.3648 14.0749 30.9276C13.5537 30.4903 13.2413 29.8491 13.2172 29.1682C13.1944 28.5233 12.736 27.9766 12.1046 27.8423C11.4385 27.7005 10.861 27.2812 10.5208 26.6923C10.1809 26.1031 10.1066 25.3938 10.3168 24.7456C10.516 24.1318 10.2718 23.4612 9.72466 23.1192C9.14714 22.7578 8.74797 22.1667 8.63005 21.4969C8.51175 20.8271 8.68461 20.135 9.10392 19.5978C9.50089 19.0891 9.50089 18.3757 9.10392 17.8671C8.68461 17.3298 8.51175 16.6376 8.63005 15.9679C8.74797 15.298 9.14714 14.7067 9.72466 14.3455C10.2718 14.0035 10.516 13.3329 10.3168 12.7192C10.1066 12.0711 10.1809 11.3617 10.5208 10.7724C10.861 10.1836 11.4381 9.76425 12.1046 9.6225C12.7356 9.48816 13.1944 8.94139 13.2172 8.29649C13.2413 7.61571 13.5537 6.97447 14.0749 6.53722C14.5956 6.09997 15.2815 5.90367 15.9564 5.99815C16.5955 6.08825 17.2133 5.73082 17.4554 5.13244C17.7109 4.50109 18.224 4.00524 18.863 3.7727C19.5021 3.53978 20.2136 3.58996 20.8153 3.90966C21.3851 4.21215 22.0882 4.08837 22.52 3.609C22.9763 3.1029 23.6278 2.81249 24.3078 2.81249C24.9883 2.81249 25.6398 3.1029 26.0957 3.609C26.5278 4.08837 27.2306 4.21252 27.8004 3.90966C28.4021 3.58996 29.114 3.54015 29.753 3.7727C30.3921 4.00524 30.9051 4.50109 31.1604 5.1328C31.4025 5.73082 32.0207 6.08788 32.6597 5.99815C33.3342 5.90367 34.0202 6.09997 34.5412 6.53722C35.062 6.97447 35.3747 7.61571 35.3986 8.29649C35.4216 8.94175 35.8801 9.48816 36.5115 9.6225C37.1776 9.76425 37.7551 10.1836 38.0949 10.7724C38.4351 11.3617 38.5095 12.0711 38.2993 12.7192C38.1001 13.3329 38.344 14.0035 38.8911 14.3455C39.469 14.707 39.8681 15.2984 39.986 15.9679C40.1043 16.6376 39.9315 17.3298 39.5122 17.8671C39.1148 18.3757 39.1148 19.0891 39.5118 19.5978ZM32.9699 38.5121C32.3344 38.3682 31.6833 38.6791 31.3962 39.264L29.3824 43.3677L26.3601 37.0429C26.738 36.8811 27.0969 36.6752 27.4283 36.4281C28.497 36.7489 29.652 36.7217 30.7151 36.335C31.7778 35.9482 32.6798 35.2261 33.2925 34.2937C33.8026 34.2645 34.3039 34.1593 34.7815 33.9858L37.4277 39.5232L32.9699 38.5121ZM17.2199 39.264C16.9796 38.7751 16.4849 38.4773 15.9579 38.4773C15.8546 38.4773 15.7503 38.4887 15.6463 38.5121L11.1884 39.5228L13.8347 33.9854C14.3121 34.1593 14.8139 34.2641 15.3236 34.2937C15.9363 35.2261 16.8383 35.948 17.901 36.3347C18.9641 36.7217 20.1192 36.7485 21.1878 36.4281C21.5192 36.6748 21.878 36.8811 22.256 37.0425L19.2336 43.3673L17.2199 39.264Z" fill="#2044A8"/>
<path d="M24.3079 6.41089C17.514 6.41089 11.9864 11.9381 11.9864 18.7324C11.9864 25.5267 17.514 31.054 24.3079 31.054C31.1022 31.054 36.6298 25.5267 36.6298 18.7324C36.6298 11.9381 31.1022 6.41089 24.3079 6.41089ZM24.3079 28.2415C19.0649 28.2415 14.7989 23.9758 14.7989 18.7324C14.7989 13.489 19.0649 9.22339 24.3079 9.22339C29.5513 9.22339 33.8173 13.489 33.8173 18.7324C33.8173 23.9758 29.5513 28.2415 24.3079 28.2415Z" fill="#2044A8"/>
<path d="M22.1652 22.7735C22.4288 23.0372 22.7866 23.1855 23.1594 23.1855C23.5322 23.1855 23.89 23.0372 24.1537 22.7735L30.2474 16.6798C30.7967 16.1304 30.7967 15.2402 30.2474 14.6909C29.6984 14.1419 28.8078 14.1419 28.2589 14.6909L23.1594 19.7903L20.3568 16.9881C19.8078 16.4388 18.9172 16.4388 18.3683 16.9881C17.8189 17.5371 17.8189 18.4277 18.3683 18.9767L22.1652 22.7735Z" fill="#2044A8"/>
</svg>
