<svg width="49" height="48" viewBox="0 0 49 48" fill="none" xmlns="http://www.w3.org/2000/svg">
<path d="M42.5344 38.6794C44.6437 42.4294 41.9344 47.0625 37.6322 47.0625H11.8678C7.56562 47.0625 4.85625 42.4294 6.96563 38.6794L11.3344 30.9122C15.9937 32.7722 21.1603 32.5303 25.6875 30.1875C29.1928 28.3725 33.0825 27.8184 36.8222 28.5244L42.5344 38.6794Z" fill="#2044A8"/>
<path d="M21 22.6875C22.0359 22.6875 22.875 23.5266 22.875 24.5625C22.875 25.5984 22.0359 26.4375 21 26.4375C19.9641 26.4375 19.125 25.5984 19.125 24.5625C19.125 23.5266 19.9641 22.6875 21 22.6875Z" fill="#2044A8"/>
<path d="M28.5 23.625C29.0175 23.625 29.4375 23.205 29.4375 22.6875C29.4375 22.17 29.0175 21.75 28.5 21.75C27.9825 21.75 27.5625 22.17 27.5625 22.6875C27.5625 23.205 27.9825 23.625 28.5 23.625Z" fill="#2044A8"/>
<path d="M24.75 18C25.2675 18 25.6875 17.58 25.6875 17.0625C25.6875 16.545 25.2675 16.125 24.75 16.125C24.2325 16.125 23.8125 16.545 23.8125 17.0625C23.8125 17.58 24.2325 18 24.75 18Z" fill="#2044A8"/>
<path d="M13.5 40.5C12.9825 40.5 12.5625 40.92 12.5625 41.4375C12.5625 41.955 12.9825 42.375 13.5 42.375C14.0175 42.375 14.4375 41.955 14.4375 41.4375C14.4375 40.92 14.0175 40.5 13.5 40.5Z" fill="#2044A8"/>
<path d="M43.3515 38.2198L31.3125 16.817V5.46431C32.4039 5.07741 33.1875 4.03481 33.1875 2.8125C33.1875 1.26169 31.9258 0 30.375 0H19.125C17.5742 0 16.3125 1.26169 16.3125 2.8125C16.3125 4.03481 17.0962 5.07741 18.1875 5.46431V16.817L6.1485 38.2198C4.99275 40.2744 5.01328 42.716 6.20325 44.7507C7.39313 46.7853 9.51075 48 11.8678 48H37.6322C39.9893 48 42.1068 46.7853 43.2968 44.7507C44.4867 42.716 44.5073 40.2744 43.3515 38.2198ZM19.9421 17.5221C20.0211 17.3818 20.0625 17.2235 20.0625 17.0625V5.625H21C21.5177 5.625 21.9375 5.20519 21.9375 4.6875C21.9375 4.16981 21.5177 3.75 21 3.75H19.125C18.6081 3.75 18.1875 3.32944 18.1875 2.8125C18.1875 2.29556 18.6081 1.875 19.125 1.875H30.375C30.8919 1.875 31.3125 2.29556 31.3125 2.8125C31.3125 3.32944 30.8919 3.75 30.375 3.75H28.5C27.9823 3.75 27.5625 4.16981 27.5625 4.6875C27.5625 5.20519 27.9823 5.625 28.5 5.625H29.4375V17.0625C29.4375 17.2236 29.4789 17.3817 29.5579 17.5221L35.0836 27.3458C31.7091 27.0726 28.3463 27.7551 25.2566 29.3549C21.2848 31.4103 16.8633 31.7722 12.6941 30.4074L19.9421 17.5221ZM41.6782 43.8041C40.8283 45.2573 39.3158 46.125 37.6322 46.125H11.8678C10.1843 46.125 8.67169 45.2573 7.82185 43.8041C6.97181 42.3507 6.9571 40.6067 7.78275 39.1389L11.7585 32.0709C13.6875 32.7445 15.681 33.0846 17.7057 33.0846C18.0054 33.0846 18.3059 33.0772 18.6069 33.0622C21.223 32.9327 23.7503 32.2456 26.1186 31.02C29.2866 29.3798 32.771 28.8135 36.2232 29.3718L41.7174 39.1389C42.5429 40.6067 42.5283 42.3507 41.6782 43.8041Z" fill="#2044A8"/>
<path d="M21 27.375C22.5508 27.375 23.8125 26.1133 23.8125 24.5625C23.8125 23.0117 22.5508 21.75 21 21.75C19.4492 21.75 18.1875 23.0117 18.1875 24.5625C18.1875 26.1133 19.4492 27.375 21 27.375ZM21 23.625C21.5169 23.625 21.9375 24.0456 21.9375 24.5625C21.9375 25.0794 21.5169 25.5 21 25.5C20.4831 25.5 20.0625 25.0794 20.0625 24.5625C20.0625 24.0456 20.4831 23.625 21 23.625Z" fill="#2044A8"/>
<path d="M36 40.5H17.25C16.7323 40.5 16.3125 40.9198 16.3125 41.4375C16.3125 41.9552 16.7323 42.375 17.25 42.375H36C36.5177 42.375 36.9375 41.9552 36.9375 41.4375C36.9375 40.9198 36.5177 40.5 36 40.5Z" fill="#2044A8"/>
</svg>
