<svg width="512" height="512" viewBox="0 0 512 512" fill="none" xmlns="http://www.w3.org/2000/svg">
<path d="M432 100C426.48 100 422 104.48 422 110C422 115.52 426.48 120 432 120C437.52 120 442 115.52 442 110C442 104.48 437.52 100 432 100Z" fill="white"/>
<path d="M80 100C74.48 100 70 104.48 70 110C70 115.52 74.48 120 80 120C85.52 120 90 115.52 90 110C90 104.48 85.52 100 80 100Z" fill="white"/>
<path d="M502 220H490.04C486.302 191.196 477.27 163.747 463.096 138.295C460.409 133.471 454.32 131.736 449.494 134.423C444.669 137.11 442.935 143.2 445.622 148.025C458.13 170.488 466.268 194.653 469.874 220H462C456.477 220 452 224.477 452 230V270C452 275.523 456.477 280 462 280H502C507.523 280 512 275.523 512 270V230C512 224.477 507.523 220 502 220ZM492 260H472V240H481.078C481.081 240 481.085 240 481.088 240C481.092 240 481.095 240 481.099 240H492V260Z" fill="white"/>
<path d="M365.981 292.621C365.975 292.466 365.971 292.311 365.958 292.156C365.94 291.944 365.911 291.735 365.88 291.527C365.861 291.399 365.846 291.271 365.821 291.143C365.775 290.898 365.715 290.658 365.652 290.419C365.628 290.328 365.609 290.237 365.582 290.147C365.493 289.848 365.389 289.555 365.273 289.268C365.26 289.237 365.251 289.204 365.238 289.173C365.1 288.839 364.945 288.514 364.773 288.2L264.775 105.204C263.022 101.996 259.657 100 256 100C252.343 100 248.978 101.996 247.225 105.205L147.227 288.201C147.055 288.515 146.9 288.84 146.762 289.174C146.749 289.205 146.74 289.237 146.727 289.269C146.611 289.556 146.507 289.849 146.418 290.148C146.391 290.238 146.372 290.329 146.348 290.42C146.284 290.659 146.225 290.898 146.179 291.144C146.155 291.271 146.14 291.399 146.12 291.528C146.089 291.736 146.06 291.945 146.042 292.157C146.029 292.312 146.024 292.467 146.019 292.622C146.014 292.748 146 292.872 146 293C146 293.066 146.009 293.129 146.01 293.195C146.013 293.352 146.023 293.508 146.034 293.665C146.047 293.864 146.063 294.062 146.088 294.258C146.106 294.396 146.128 294.533 146.151 294.671C146.187 294.887 146.23 295.101 146.28 295.312C146.308 295.431 146.339 295.55 146.372 295.668C146.435 295.896 146.507 296.12 146.585 296.341C146.607 296.404 146.621 296.468 146.645 296.531L182.709 392.1C179.816 393.534 177.14 395.439 174.789 397.789C169.121 403.457 166 410.99 166 419C166 432.036 174.361 443.152 186 447.28V502C186 507.523 190.477 512 196 512H316C321.523 512 326 507.523 326 502V447.297C330.169 445.826 333.992 443.431 337.212 440.211C342.879 434.543 346 427.01 346 419C346 407.227 339.181 397.022 329.287 392.113L365.356 296.531C365.38 296.468 365.394 296.404 365.416 296.341C365.494 296.12 365.566 295.896 365.629 295.668C365.662 295.55 365.692 295.431 365.721 295.312C365.771 295.101 365.813 294.887 365.85 294.671C365.873 294.533 365.896 294.396 365.913 294.258C365.938 294.062 365.954 293.864 365.967 293.665C365.977 293.508 365.988 293.352 365.991 293.195C365.992 293.13 366.001 293.066 366.001 293C366 292.872 365.986 292.748 365.981 292.621ZM256 283C261.514 283 266 287.486 266 293C266 298.514 261.514 303 256 303C250.486 303 246 298.514 246 293C246 287.486 250.486 283 256 283ZM306 492H206V449H306V492ZM323.069 426.068C321.179 427.959 318.668 429 316 429H196C190.486 429 186 424.514 186 419C186 416.332 187.041 413.821 188.931 411.932C190.822 410.041 193.332 409 196 409H315.933C315.955 409 315.977 409.003 315.999 409.003C316.01 409.003 316.022 409.002 316.033 409.002C321.532 409.02 326.001 413.497 326.001 419C326 421.668 324.959 424.179 323.069 426.068ZM309.085 389H202.915L170.462 303H196C201.523 303 206 298.523 206 293C206 287.477 201.523 283 196 283H172.86L246 149.154V264.72C234.361 268.848 226 279.963 226 293C226 309.542 239.458 323 256 323C272.542 323 286 309.542 286 293C286 279.964 277.639 268.848 266 264.72V149.154L339.14 283H316C310.477 283 306 287.477 306 293C306 298.523 310.477 303 316 303H341.538L309.085 389Z" fill="white"/>
<path d="M62.505 134.423C57.679 131.735 51.589 133.469 48.903 138.295C34.73 163.747 25.697 191.196 21.96 220H10C4.477 220 0 224.477 0 230V270C0 275.523 4.477 280 10 280H50C55.523 280 60 275.523 60 270V230C60 224.477 55.523 220 50 220H42.125C45.732 194.653 53.869 170.488 66.377 148.025C69.064 143.2 67.331 137.11 62.505 134.423ZM40 260H20V240H30.901C30.905 240 30.908 240 30.912 240C30.915 240 30.919 240 30.922 240H40V260Z" fill="white"/>
<path d="M482 0C468.964 0 457.848 8.361 453.72 20H286V10C286 4.477 281.523 0 276 0H236C230.477 0 226 4.477 226 10V20H58.28C54.152 8.361 43.036 0 30 0C13.458 0 0 13.458 0 30C0 46.542 13.458 60 30 60C43.036 60 54.152 51.639 58.28 40H158.814C137.485 48.925 117.925 60.511 101.825 74.084C97.602 77.644 97.065 83.953 100.625 88.175C102.603 90.522 105.43 91.73 108.275 91.73C110.551 91.73 112.839 90.958 114.715 89.376C143.407 65.188 184.353 47.913 226 42.119V50C226 55.523 230.477 60 236 60H276C281.523 60 286 55.523 286 50V42.119C327.647 47.913 368.593 65.188 397.285 89.375C399.161 90.957 401.449 91.73 403.725 91.729C406.571 91.729 409.398 90.521 411.375 88.174C414.936 83.953 414.398 77.644 410.175 74.084C394.075 60.511 374.515 48.925 353.186 40H453.72C457.848 51.639 468.963 60 482 60C498.542 60 512 46.542 512 30C512 13.458 498.542 0 482 0ZM30 40C24.486 40 20 35.514 20 30C20 24.486 24.486 20 30 20C35.514 20 40 24.486 40 30C40 35.514 35.514 40 30 40ZM266 30V30.9V40H246V30.9V30V20H266V30ZM482 40C476.486 40 472 35.514 472 30C472 24.486 476.486 20 482 20C487.514 20 492 24.486 492 30C492 35.514 487.514 40 482 40Z" fill="white"/>
</svg>
